<?xml version="1.0" encoding="UTF-8" standalone="no"?>
<!-- Created with Inkscape (http://www.inkscape.org/) -->

<svg
   xmlns:dc="http://purl.org/dc/elements/1.1/"
   xmlns:cc="http://creativecommons.org/ns#"
   xmlns:rdf="http://www.w3.org/1999/02/22-rdf-syntax-ns#"
   xmlns:svg="http://www.w3.org/2000/svg"
   xmlns="http://www.w3.org/2000/svg"
   xmlns:sodipodi="http://sodipodi.sourceforge.net/DTD/sodipodi-0.dtd"
   xmlns:inkscape="http://www.inkscape.org/namespaces/inkscape"
   width="69.690369"
   height="69.690369"
   viewBox="0 0 69.69037 69.69037"
   id="svg4194"
   version="1.1"
   inkscape:version="0.91 r13725"
   sodipodi:docname="icon_box.svg">
  <defs
     id="defs4196" />
  <sodipodi:namedview
     id="base"
     pagecolor="#ffffff"
     bordercolor="#666666"
     borderopacity="1.0"
     inkscape:pageopacity="0.0"
     inkscape:pageshadow="2"
     inkscape:zoom="3.959798"
     inkscape:cx="86.942151"
     inkscape:cy="-10.753184"
     inkscape:document-units="px"
     inkscape:current-layer="layer1"
     showgrid="false"
     units="px"
     inkscape:showpageshadow="false"
     showborder="false"
     fit-margin-top="0"
     fit-margin-left="0"
     fit-margin-right="0"
     fit-margin-bottom="0"
     inkscape:window-width="1440"
     inkscape:window-height="851"
     inkscape:window-x="28"
     inkscape:window-y="30"
     inkscape:window-maximized="0" />
  <metadata
     id="metadata4199">
    <rdf:RDF>
      <cc:Work
         rdf:about="">
        <dc:format>image/svg+xml</dc:format>
        <dc:type
           rdf:resource="http://purl.org/dc/dcmitype/StillImage" />
        <dc:title></dc:title>
      </cc:Work>
    </rdf:RDF>
  </metadata>
  <g
     inkscape:label="Layer 1"
     inkscape:groupmode="layer"
     id="layer1"
     transform="translate(349.25519,42.638112)">
    <rect
       style="fill:#ffffff;fill-rule:evenodd;stroke:#ffffff;stroke-width:0.5;stroke-linecap:butt;stroke-linejoin:miter;stroke-opacity:1;stroke-miterlimit:4;stroke-dasharray:none;fill-opacity:1"
       id="rect4268"
       width="68.512581"
       height="68.512581"
       x="-348.66629"
       y="-42.049217" />
    <g
       transform="translate(-353.42986,-34.716328)"
       id="layer1-5"
       inkscape:label="Layer 1">
      <g
         transform="translate(-11.321927,-22.352576)"
         id="g4072">
        <g
           id="g4074">
          <path
             inkscape:connector-curvature="0"
             d="m 20.382,68.05 c -0.717,0 -1.39,-0.387 -1.746,-1.026 -0.132,-0.236 -3.229,-5.92 -3.229,-17.022 0,-11.104 3.098,-16.788 3.229,-17.024 0.403,-0.724 1.208,-1.118 2.028,-1.007 0.377,0.054 9.316,1.35 16.321,4.771 0.854,0.417 1.682,0.864 2.46,1.328 0.948,0.566 1.258,1.794 0.692,2.743 -0.566,0.949 -1.793,1.258 -2.743,0.692 -0.683,-0.408 -1.411,-0.802 -2.165,-1.17 -4.839,-2.363 -10.895,-3.653 -13.646,-4.155 -0.795,2.071 -2.178,6.698 -2.178,13.822 0,7.188 1.373,11.769 2.169,13.82 2.751,-0.502 8.821,-1.796 13.654,-4.156 5.921,-2.891 7.467,-5.916 7.481,-5.946 0.482,-0.979 1.669,-1.403 2.655,-0.939 0.987,0.467 1.425,1.622 0.976,2.616 -0.195,0.433 -2.119,4.33 -9.356,7.863 -7.004,3.421 -15.944,4.718 -16.321,4.771 -0.094,0.012 -0.187,0.019 -0.281,0.019 z"
             id="path4076" />
        </g>
        <g
           id="g4078">
          <path
             inkscape:connector-curvature="0"
             d="m 79.62,68.05 c -0.094,0 -0.188,-0.007 -0.282,-0.02 -0.377,-0.054 -9.319,-1.351 -16.323,-4.771 -7.237,-3.533 -9.161,-7.431 -9.356,-7.863 -0.455,-1.006 -0.008,-2.191 0.999,-2.646 1.004,-0.456 2.19,-0.008 2.646,0.999 0,0 1.547,3.025 7.468,5.916 4.828,2.357 10.893,3.652 13.647,4.155 0.795,-2.071 2.176,-6.697 2.176,-13.819 0,-7.12 -1.38,-11.745 -2.177,-13.821 -2.755,0.503 -8.819,1.797 -13.646,4.154 -5.887,2.875 -7.454,5.888 -7.468,5.917 -0.455,1.006 -1.642,1.455 -2.646,0.999 -1.007,-0.454 -1.454,-1.64 -0.999,-2.646 0.195,-0.433 2.119,-4.33 9.356,-7.864 7.005,-3.421 15.946,-4.717 16.323,-4.771 0.821,-0.109 1.625,0.283 2.028,1.007 0.132,0.236 3.228,5.921 3.228,17.024 0,11.102 -3.096,16.786 -3.228,17.022 -0.356,0.641 -1.028,1.028 -1.746,1.028 z"
             id="path4080" />
        </g>
        <g
           id="g4082">
          <path
             inkscape:connector-curvature="0"
             d="m 55.48,57.743 c 0,0 -1.711,1.301 -5.48,1.301 -3.769,0 -5.48,-1.301 -5.48,-1.301 l 0,-15.032 c 0,0 2.506,-0.982 5.48,-0.982 2.977,0 5.48,0.982 5.48,0.982 l 0,15.032 z"
             id="path4084" />
          <path
             inkscape:connector-curvature="0"
             d="m 50,61.044 c -4.318,0 -6.461,-1.534 -6.69,-1.709 -0.498,-0.378 -0.79,-0.967 -0.79,-1.592 l 0,-15.032 c 0,-0.823 0.504,-1.562 1.27,-1.862 0.117,-0.046 2.896,-1.12 6.211,-1.12 3.316,0 6.095,1.075 6.211,1.12 0.766,0.301 1.27,1.04 1.27,1.862 l 0,15.032 c 0,0.625 -0.292,1.214 -0.79,1.592 C 56.461,59.51 54.318,61.044 50,61.044 Z M 46.52,56.51 c 0.689,0.249 1.839,0.534 3.48,0.534 1.637,0 2.783,-0.284 3.48,-0.536 l 0,-12.32 c -0.88,-0.223 -2.133,-0.46 -3.48,-0.46 -1.347,0 -2.6,0.236 -3.48,0.46 l 0,12.322 z"
             id="path4086" />
        </g>
        <g
           id="g4088">
          <path
             inkscape:connector-curvature="0"
             d="m 44.52,52.001 -9.361,0 c -1.104,0 -2,-0.896 -2,-2 0,-1.104 0.896,-2 2,-2 l 9.361,0 c 1.104,0 2,0.896 2,2 0,1.104 -0.896,2 -2,2 z"
             id="path4090" />
        </g>
        <g
           id="g4092">
          <path
             inkscape:connector-curvature="0"
             d="m 65.334,52.001 -9.854,0 c -1.104,0 -2,-0.896 -2,-2 0,-1.104 0.896,-2 2,-2 l 9.854,0 c 1.104,0 2,0.896 2,2 0,1.104 -0.896,2 -2,2 z"
             id="path4094" />
        </g>
      </g>
    </g>
  </g>
</svg>
